<svg width="307" height="277" viewBox="0 0 307 277" fill="none" xmlns="http://www.w3.org/2000/svg">
<path d="M298.861 138.41C298.87 172.327 286.251 205.032 263.464 230.153C240.676 255.274 209.353 271.012 175.596 274.3C141.839 277.587 108.067 268.19 80.8603 247.938C53.6537 227.687 34.9611 198.031 28.4248 164.75C21.8884 131.47 27.9766 96.9473 45.5029 67.9101C63.0292 38.8728 90.7383 17.4005 123.231 7.67702C155.724 -2.04651 190.673 0.675233 221.269 15.3119C251.865 29.9486 275.916 55.4518 288.735 86.8523C291.691 94.0171 294.018 101.426 295.688 108.994C296.948 114.65 297.822 120.384 298.304 126.158C298.676 130.219 298.861 134.304 298.861 138.41Z" fill="#68E1FD"/>
<path d="M162.026 276.916C136.652 276.944 111.761 269.984 90.0813 256.799C72.4648 246.032 57.4464 231.503 46.101 214.253C35.5465 198.088 28.4875 179.895 25.377 160.841C22.2664 141.788 23.173 122.294 28.0385 103.612C32.9041 84.929 41.6211 67.4697 53.6305 52.3537C65.6398 37.2378 80.6762 24.799 97.7751 15.8355C114.874 6.872 133.658 1.58162 152.921 0.303779C172.185 -0.974059 191.503 1.78886 209.636 8.41529C227.769 15.0417 244.316 25.3853 258.217 38.7825C272.118 52.1797 283.065 68.3347 290.355 86.211C293.326 93.4937 295.658 101.021 297.325 108.707C298.6 114.435 299.485 120.243 299.975 126.09C300.346 130.124 300.549 134.275 300.549 138.41C300.504 175.133 285.895 210.34 259.926 236.305C233.957 262.271 198.749 276.876 162.026 276.916ZM162.026 3.26274C135.296 3.26274 109.167 11.189 86.9422 26.0392C64.7173 40.8894 47.3951 61.9965 37.1661 86.6915C26.9371 111.386 24.2607 138.56 29.4754 164.776C34.6901 190.992 47.5617 215.073 66.4624 233.974C85.3631 252.875 109.444 265.746 135.66 270.961C161.876 276.175 189.05 273.499 213.745 263.27C238.44 253.041 259.547 235.719 274.397 213.494C289.247 191.269 297.174 165.14 297.174 138.41C297.174 134.377 296.988 130.326 296.617 126.377C296.137 120.7 295.275 115.061 294.034 109.501C292.424 102.006 290.166 94.6648 287.284 87.5611C277.14 62.6733 259.813 41.3705 237.514 26.369C215.214 11.3674 188.952 3.34697 162.077 3.33025L162.026 3.26274Z" fill="#093F68"/>
<path d="M182.683 250.757C180.388 253.053 179.797 256.479 178.717 259.55C177.637 262.622 175.342 265.828 172.118 265.879C169.148 265.879 166.802 263.195 165.941 260.343C165.348 257.436 164.942 254.493 164.726 251.534C164.203 248.462 162.937 245.458 163.258 242.37C164.018 234.792 173.823 228.598 170.717 221.645C169.705 219.367 167.342 217.544 167.443 215.047C167.656 213.895 167.973 212.766 168.389 211.671C169.688 205.849 162.397 202.372 158.263 198.17C152.153 191.892 152.541 181.952 153.47 173.243C154.448 163.911 156.153 153.515 163.68 147.929C171.629 141.988 182.784 143.811 192.37 146.477C193.449 146.646 194.431 147.197 195.138 148.03C196.555 150.139 193.957 153.245 195.239 155.455C196.927 158.291 201.028 155.591 204.268 155.219C211.643 154.359 215.002 167.033 222.393 166.51C224.166 166.375 226.005 165.463 227.642 166.155C229.279 166.847 229.887 168.855 231.237 170.02C235.27 173.547 243.439 168.332 246.274 172.838C246.647 173.514 246.914 174.242 247.067 174.999C248.502 180.855 249.109 188.5 243.877 191.47C241.903 192.601 239.304 192.871 237.987 194.727C235.878 197.681 238.781 201.849 237.869 205.376C237.306 206.984 236.299 208.4 234.967 209.46C232.021 212.134 228.665 214.316 225.026 215.924C223.652 216.404 222.369 217.112 221.229 218.017C219.339 219.705 218.866 222.574 217.432 224.768C216.371 226.178 215.095 227.414 213.651 228.43C208.193 232.334 202.996 236.591 198.091 241.172C193.416 245.694 187.088 246.454 182.683 250.757Z" fill="#70CC40"/>
<path d="M172.051 267.634C168.152 267.634 165.3 264.157 164.321 260.883C163.82 259.019 163.52 257.107 163.427 255.179C163.427 254.015 163.241 252.934 163.072 251.804C162.904 250.673 162.667 249.93 162.431 249.002C161.758 246.818 161.467 244.535 161.57 242.252C161.942 238.606 164.034 235.501 166.043 232.379C168.49 228.7 170.582 225.527 169.182 222.388C168.821 221.662 168.391 220.973 167.899 220.329C166.855 219.331 166.148 218.032 165.876 216.614C165.604 215.195 165.78 213.728 166.38 212.414C166.521 212.039 166.64 211.656 166.735 211.266C167.427 208.228 164.878 205.9 160.912 202.659C159.554 201.61 158.258 200.483 157.031 199.284C150.668 192.719 150.736 182.779 151.765 172.99C152.795 163.202 154.55 152.536 162.65 146.477C171.393 139.946 183.341 142.123 192.775 144.79C193.594 144.867 194.382 145.143 195.071 145.594C195.759 146.044 196.328 146.656 196.727 147.376C197.126 148.095 197.343 148.901 197.36 149.724C197.378 150.547 197.194 151.361 196.825 152.097C196.589 153.093 196.353 154.055 196.657 154.561C196.96 155.067 198.159 155.05 200.656 154.291C201.753 153.914 202.883 153.643 204.032 153.481C208.622 152.941 211.795 156.485 214.596 159.624C217.06 162.358 219.373 164.957 222.225 164.687C222.742 164.632 223.255 164.542 223.76 164.417C225.218 163.937 226.792 163.937 228.25 164.417C229.481 165.037 230.502 166.005 231.186 167.202C231.5 167.696 231.868 168.155 232.283 168.569C233.65 169.75 236.013 169.497 238.527 169.227C241.903 168.872 245.599 168.467 247.658 171.758C248.124 172.585 248.46 173.479 248.653 174.408C250.915 183.622 249.531 189.951 244.67 192.753C243.884 193.176 243.066 193.537 242.223 193.833C241.112 194.112 240.1 194.697 239.304 195.52C238.544 196.601 238.848 198.187 239.219 200.043C239.716 201.859 239.791 203.764 239.439 205.613C238.814 207.543 237.642 209.249 236.063 210.524C232.996 213.326 229.49 215.606 225.684 217.274L225.161 217.494C224.142 217.866 223.19 218.402 222.343 219.08C221.455 220.054 220.783 221.204 220.368 222.455C219.943 223.521 219.418 224.544 218.799 225.51C217.637 227.071 216.236 228.438 214.647 229.56L210.985 232.362C206.818 235.344 202.87 238.621 199.171 242.167C196.701 244.466 193.845 246.312 190.733 247.618C188.188 248.685 185.838 250.168 183.78 252.006C182.36 253.733 181.376 255.777 180.911 257.964C180.675 258.706 180.455 259.449 180.202 260.158C178.514 264.765 175.527 267.55 172.051 267.617V267.634ZM177.114 145.532C172.688 145.351 168.325 146.625 164.693 149.161C157.672 154.409 156.085 164.349 155.14 173.328C154.195 182.306 154.06 191.352 159.461 196.955C160.507 198.001 161.739 199.014 163.055 200.094C166.903 203.216 171.241 206.76 170.042 212.059C169.918 212.581 169.76 213.094 169.57 213.595C169.351 214.135 169.209 214.703 169.148 215.283C169.305 216.485 169.836 217.607 170.667 218.489C171.316 219.309 171.881 220.191 172.354 221.122C174.515 225.966 171.679 230.235 168.979 234.37C167.19 237.087 165.334 239.889 165.047 242.707C164.985 244.628 165.247 246.545 165.823 248.378C166.076 249.357 166.33 250.386 166.515 251.416C166.701 252.445 166.819 253.863 166.92 255.044C166.981 256.754 167.23 258.452 167.663 260.107C168.338 262.284 170.093 264.495 172.219 264.444C174.346 264.394 176.354 261.727 177.282 259.229C177.519 258.554 177.738 257.862 177.957 257.17C178.559 254.445 179.836 251.915 181.67 249.812C183.983 247.695 186.636 245.983 189.518 244.749C192.271 243.583 194.805 241.957 197.011 239.939C200.789 236.277 204.828 232.893 209.095 229.814L212.723 227.029C214.009 226.116 215.147 225.012 216.099 223.755C216.6 222.956 217.029 222.115 217.381 221.24C217.977 219.576 218.92 218.057 220.149 216.785C221.271 215.839 222.551 215.096 223.929 214.591L224.419 214.372C227.886 212.842 231.083 210.762 233.886 208.212C234.975 207.369 235.811 206.242 236.3 204.954C236.495 203.589 236.403 202.198 236.03 200.87C235.574 198.592 235.068 196.01 236.671 193.748C237.831 192.351 239.392 191.343 241.143 190.862C241.821 190.635 242.476 190.347 243.101 190.002C247.438 187.521 246.797 180.703 245.481 175.404C245.379 174.815 245.185 174.245 244.907 173.716C244.029 172.298 242.088 172.416 239 172.754C235.912 173.091 232.654 173.446 230.19 171.286C229.547 170.695 228.98 170.026 228.503 169.294C228.153 168.641 227.642 168.089 227.018 167.691C226.209 167.514 225.367 167.567 224.587 167.843C223.908 167.972 223.22 168.045 222.528 168.062C218.006 168.383 214.9 164.906 212.133 161.818C209.652 159.05 207.306 156.451 204.471 156.755C203.526 156.913 202.595 157.145 201.686 157.447C199.104 158.24 195.577 159.32 193.771 156.164C193.065 154.616 192.998 152.851 193.585 151.253C193.821 150.241 194.058 149.296 193.737 148.823C193.215 148.382 192.587 148.085 191.914 147.962C187.104 146.501 182.122 145.684 177.097 145.532H177.114Z" fill="#093F68"/>
<path d="M147.799 144.435C142.736 139.372 135.985 136.284 129.387 133.297C128.17 132.646 126.831 132.255 125.455 132.149C123.986 132.309 122.545 132.66 121.168 133.195C112.375 135.575 104.089 127.305 100.916 118.766C97.7432 110.226 97.1019 100.624 92.2077 92.9447C88.2417 86.7173 83.1788 79.0891 89.3724 72.2203C90.896 70.8601 92.3386 69.4119 93.6928 67.8831C98.587 61.0312 91.3976 50.2133 96.4437 43.4964C98.1314 41.2012 101.119 39.8173 102.148 37.134C103.177 34.4506 101.777 31.2272 101.186 28.2569C98.7896 16.5277 114.519 22.9239 119.21 26.2992C123.159 29.0501 126.113 33.2692 130.534 35.1763C135.429 37.2859 141.183 36.0708 145.858 33.4886C146.729 32.8609 147.772 32.5189 148.845 32.5098C151.141 32.7798 151.731 35.8851 151.191 38.1297C150.651 40.3743 149.588 42.8045 150.685 44.8803C151.934 47.1924 155.208 47.4287 157.166 49.1838C159.528 51.2934 159.427 54.905 159.798 58.044C160.17 61.1831 162.06 64.9297 165.216 64.6765C167.275 64.5246 168.743 62.6682 170.498 61.5712C172.253 60.4742 175.358 60.6768 175.561 62.7357C175.577 63.2427 175.491 63.7478 175.308 64.2208L167.021 90.5989C166.788 92.6693 165.797 94.5802 164.239 95.9636C162.681 97.347 160.667 98.1052 158.583 98.0921C150.235 99.7235 141.971 101.732 133.792 104.117C130.972 104.709 128.348 106.003 126.163 107.88C124.155 109.939 123.345 113.45 125.168 115.677C127.834 115.019 129.927 118.175 130.231 120.926C130.652 125.078 130.231 127.204 133.386 130.343C136.127 132.788 139.187 134.849 142.483 136.469C146.554 138.545 150.169 141.414 153.115 144.908C155.495 148.064 157.604 153.346 155.697 157.194C154.01 156.012 153.706 153.312 152.845 151.489C151.587 148.862 149.879 146.475 147.799 144.435Z" fill="#70CC40"/>
<path d="M155.714 158.865C155.373 158.863 155.039 158.763 154.752 158.578C153.334 157.36 152.35 155.713 151.951 153.886C151.783 153.309 151.574 152.745 151.326 152.198C150.152 149.742 148.559 147.509 146.618 145.6C141.555 140.672 135.057 137.701 128.678 134.799C127.681 134.253 126.585 133.914 125.455 133.803C124.602 133.851 123.761 134.021 122.957 134.309C122.518 134.444 122.079 134.596 121.624 134.714C111.936 137.347 102.891 128.723 99.2959 119.272C98.1151 115.957 97.1289 112.576 96.3425 109.146C94.9586 103.594 93.6423 98.3452 90.7395 93.8054L90.5539 93.5017C86.571 87.2742 81.1367 78.7516 88.0899 71.039C88.7043 70.3758 89.358 69.7503 90.0475 69.1657C90.8717 68.4726 91.6237 67.6979 92.2921 66.8536C94.3342 63.9846 93.8448 60.103 93.3047 55.8838C92.714 51.209 92.1065 46.3655 94.9924 42.3826C95.7881 41.3789 96.6939 40.4675 97.6926 39.6655C98.8736 38.817 99.8437 37.7083 100.528 36.4252C100.937 34.5693 100.773 32.6328 100.055 30.8728C99.8528 30.0627 99.6334 29.1851 99.4647 28.4932C98.5702 23.9534 100.173 21.7426 101.675 20.8312C106.637 17.5741 117.118 22.6877 120.24 24.8141C121.852 25.9884 123.375 27.2802 124.796 28.6788C126.66 30.6563 128.853 32.2951 131.277 33.5224C135.159 35.2101 140.205 34.6194 145.116 31.936C146.288 31.125 147.691 30.7164 149.115 30.7715C149.706 30.8383 150.274 31.0329 150.781 31.3419C151.288 31.6508 151.722 32.0667 152.052 32.5604C152.577 33.44 152.922 34.4151 153.067 35.4291C153.212 36.4432 153.154 37.4759 152.896 38.4672C152.795 38.8891 152.66 39.3279 152.541 39.7499C151.945 41.0703 151.837 42.5597 152.238 43.9521C152.938 44.8878 153.911 45.5835 155.022 45.9435C156.242 46.402 157.381 47.0514 158.398 47.8675C160.862 50.0783 161.165 53.3861 161.418 56.3057C161.418 56.8345 161.469 57.3408 161.57 57.8246C161.824 59.9848 163.106 63.1239 165.182 62.8876C166.249 62.6388 167.221 62.088 167.983 61.3012C168.523 60.8495 169.086 60.427 169.671 60.0355C170.501 59.5165 171.445 59.207 172.421 59.1335C173.397 59.06 174.376 59.2248 175.274 59.6136C175.833 59.869 176.314 60.2672 176.669 60.7679C177.025 61.2686 177.242 61.8542 177.299 62.4657C177.341 63.2001 177.232 63.9352 176.979 64.6259L168.709 91.0039C168.182 93.3323 167.012 95.4663 165.334 97.1639C163.476 98.5415 161.287 99.4032 158.988 99.6616C150.719 101.349 142.432 103.273 134.348 105.636C131.805 106.177 129.435 107.336 127.446 109.011C126.81 109.621 126.351 110.392 126.119 111.242C125.887 112.092 125.891 112.99 126.13 113.838C127.072 113.879 127.982 114.196 128.745 114.749C129.657 115.466 130.413 116.361 130.967 117.379C131.521 118.398 131.862 119.518 131.969 120.673C131.969 121.399 132.087 122.057 132.138 122.664C132.357 125.483 132.458 126.9 134.635 129.094C136.914 131.138 139.45 132.874 142.179 134.259L143.377 134.95C147.664 137.122 151.456 140.156 154.516 143.861C157.452 147.743 159.444 153.616 157.267 157.919C157.16 158.134 157.008 158.323 156.821 158.475C156.635 158.626 156.419 158.736 156.187 158.797C156.033 158.84 155.874 158.863 155.714 158.865ZM148.964 143.203C150.966 145.179 152.646 147.457 153.942 149.954C153.401 148.514 152.663 147.157 151.748 145.92C150.143 143.88 148.223 142.108 146.061 140.672C147.075 141.466 148.044 142.317 148.964 143.22V143.203ZM125.336 130.428C126.953 130.523 128.531 130.966 129.961 131.727C131.8 132.571 133.707 133.415 135.631 134.377C134.36 133.53 133.173 132.564 132.087 131.491C130.932 130.394 130.024 129.064 129.425 127.588C128.825 126.112 128.548 124.526 128.61 122.934C128.61 122.344 128.509 121.719 128.442 121.044C128.316 119.685 127.669 118.427 126.636 117.534C126.48 117.4 126.295 117.306 126.095 117.259C125.895 117.212 125.687 117.214 125.488 117.264C125.181 117.335 124.861 117.319 124.563 117.218C124.264 117.117 124 116.934 123.801 116.69C121.303 113.652 122.4 109.197 124.915 106.564C127.289 104.465 130.168 103.017 133.268 102.362C141.454 99.9823 149.841 97.9402 158.212 96.3032C159.92 96.15 161.563 95.5697 162.988 94.6155C164.172 93.3135 164.983 91.7159 165.334 89.9913L173.603 63.6133C173.702 63.3532 173.765 63.0805 173.789 62.8032C173.789 62.8032 173.789 62.702 173.637 62.6345C173.257 62.5052 172.852 62.4609 172.453 62.5047C172.054 62.5484 171.669 62.6791 171.325 62.8876C170.834 63.2161 170.36 63.571 169.907 63.9508C168.632 65.1861 167.004 65.9941 165.249 66.2629C161.148 66.5667 158.499 62.4151 158.026 58.1453L157.874 56.4576C157.655 53.943 157.436 51.5803 155.95 50.2471C155.208 49.6799 154.39 49.2197 153.52 48.8801C151.713 48.2837 150.161 47.0943 149.115 45.5048C147.883 43.2433 148.592 40.7624 149.115 38.7541C149.217 38.366 149.335 37.9609 149.419 37.5728C149.714 36.5107 149.593 35.3763 149.082 34.4C149.022 34.3013 148.941 34.2169 148.844 34.1527C148.748 34.0886 148.639 34.0463 148.525 34.0287C147.862 34.1092 147.23 34.3527 146.685 34.7375C140.728 37.9947 134.602 38.636 129.809 36.5433C127.018 35.1694 124.493 33.3125 122.349 31.0584C121.047 29.7726 119.654 28.5826 118.181 27.4975C114.805 25.101 106.367 21.6919 103.464 23.5652C102.536 24.1728 102.283 25.5735 102.722 27.7337C102.857 28.4594 103.059 29.1682 103.245 29.8939C104.188 32.336 104.318 35.0171 103.616 37.539C102.77 39.3526 101.488 40.9293 99.8866 42.1294C99.0721 42.7782 98.3308 43.5139 97.6758 44.3234C95.5493 47.1587 95.9881 51.074 96.5788 55.3269C97.1526 59.9511 97.7601 64.744 94.8911 68.6763C94.0795 69.7283 93.1572 70.6901 92.1403 71.5453C91.5436 72.0727 90.98 72.6363 90.4526 73.2329C85.5921 78.6165 88.5455 84.2533 93.2541 91.6115L93.4397 91.9153C96.6463 96.9782 98.0639 102.683 99.4647 108.252C100.22 111.572 101.166 114.846 102.3 118.057C105.405 126.225 113.101 133.465 120.594 131.44L121.759 131.086C122.939 130.658 124.183 130.436 125.438 130.428H125.336Z" fill="#093F68"/>
<path d="M192.539 26.5524L184.725 25.4217C183.892 25.219 183.017 25.2659 182.21 25.5567C181.029 26.1305 180.624 27.5819 179.746 28.5438C178.528 29.5545 177.106 30.2912 175.578 30.704C174.127 31.3284 172.641 32.5604 172.793 34.0793C172.996 36.3745 176.034 36.8639 178.312 37.269C181.541 37.8322 184.501 39.4247 186.75 41.8088C188.809 44.0196 190.817 47.1418 193.822 46.8717C195.295 46.4405 196.743 45.9278 198.159 45.336C200.893 44.7791 203.407 46.7536 205.973 47.8506C208.001 48.6814 210.207 48.9855 212.384 48.7347C214.562 48.4839 216.641 47.6863 218.428 46.4161C224.857 41.7244 214.208 34.7206 209.652 33.4549C206.884 32.6954 203.644 33.4549 201.062 32.0373C197.467 30.0627 197.214 27.2106 192.539 26.5524Z" fill="#70CC40"/>
<path d="M210.799 50.534C208.894 50.542 207.006 50.169 205.247 49.437C204.538 49.1332 203.846 48.7788 203.154 48.4244C201.773 47.4577 200.114 46.9661 198.429 47.0236C197.877 47.1693 197.345 47.3789 196.842 47.6481C195.929 48.1256 194.942 48.4451 193.923 48.5932C190.547 48.9138 188.303 46.2979 186.48 44.1884L185.451 43.0239C183.471 40.9195 180.868 39.5057 178.025 38.9904C175.477 38.5516 171.443 37.8259 171.106 34.2987C171.134 33.1625 171.517 32.0636 172.201 31.1558C172.885 30.248 173.836 29.5767 174.92 29.2357L176.067 28.7801C176.966 28.546 177.797 28.107 178.498 27.4975C178.744 27.2024 178.965 26.8862 179.156 26.5524C179.668 25.5307 180.473 24.6847 181.468 24.1222C182.578 23.6804 183.794 23.5805 184.961 23.8353L192.775 24.966C195.255 25.3042 197.521 26.5487 199.138 28.4594C199.923 29.3358 200.833 30.0921 201.838 30.704C203.175 31.2915 204.632 31.5574 206.091 31.4803C207.421 31.4802 208.747 31.6388 210.04 31.9529C213.736 32.9823 221.111 37.404 221.972 42.1801C222.165 43.2864 222.019 44.4254 221.552 45.4468C221.085 46.4683 220.319 47.3241 219.356 47.9012C216.849 49.6522 213.857 50.573 210.799 50.534ZM198.986 43.5808C200.985 43.7313 202.919 44.3624 204.622 45.4204C205.23 45.741 205.854 46.0617 206.479 46.3148C208.238 47.0444 210.155 47.3141 212.047 47.0985C213.94 46.883 215.746 46.1893 217.297 45.0828C218.63 44.104 218.681 43.2939 218.563 42.7032C218.039 39.8342 212.436 36.0539 209.044 35.1257C208.009 34.8871 206.95 34.7682 205.888 34.7713C203.876 34.8467 201.875 34.4235 200.066 33.5393C198.811 32.7737 197.674 31.83 196.691 30.7378C195.597 29.3513 194.003 28.4486 192.252 28.2232L184.438 27.0924C184.208 26.9689 183.952 26.9006 183.691 26.8928C183.429 26.8851 183.17 26.9381 182.933 27.0477C182.695 27.1574 182.487 27.3206 182.323 27.5246C182.16 27.7285 182.046 27.9677 181.991 28.2232C181.705 28.7452 181.36 29.2323 180.962 29.6745C179.912 30.7025 178.625 31.456 177.215 31.8685L176.202 32.2567C175.139 32.7123 174.38 33.4549 174.515 33.9443C174.515 34.9231 177.063 35.3451 178.531 35.632C182.142 36.2509 185.454 38.0281 187.965 40.6949L189.096 41.9775C190.868 44.0196 192.151 45.3529 193.653 45.2178C194.284 45.088 194.892 44.8662 195.459 44.5597C196.2 44.1867 196.981 43.898 197.787 43.699C198.211 43.6218 198.64 43.5823 199.07 43.5808H198.986Z" fill="#093F68"/>
<path d="M295.688 108.994C293.579 101.552 291.368 94.0924 288.803 86.7848C281.609 69.1222 270.802 53.1586 257.075 39.9186C255.691 40.0874 254.746 41.235 254.695 43.9352C254.695 47.3949 258.155 50.7702 259.573 53.6561C262.121 58.8204 259.927 58.9554 258.138 63.7821C256.923 66.9886 259.37 70.347 261.817 72.7435C264.264 75.14 267.133 77.8065 266.88 81.1818C266.61 86.4304 259.218 90.3795 261.193 95.2568C262.07 97.3833 264.568 98.514 265.446 100.624C266.694 103.442 264.787 106.649 264.821 109.737C264.821 113.315 267.504 116.268 269.412 119.289C271.319 122.31 272.483 126.681 269.952 129.229C269.108 130.09 267.926 130.63 267.302 131.643C266.036 133.668 267.521 136.25 268.99 138.14L273.918 144.671C274.455 145.493 275.163 146.19 275.993 146.713C277.985 147.777 280.432 146.713 282.305 145.414C287.928 141.705 292.627 136.757 296.043 130.951C296.983 129.449 297.726 127.832 298.254 126.141L295.688 108.994Z" fill="#70CC40"/>
<path d="M277.799 148.924C276.909 148.929 276.033 148.708 275.251 148.283C274.202 147.651 273.304 146.799 272.618 145.785L267.69 139.237C265.125 135.862 264.534 133.077 266.003 130.799C266.528 130.025 267.199 129.36 267.977 128.841C268.29 128.612 268.589 128.364 268.871 128.099C270.66 126.31 269.766 122.867 268.112 120.251C267.741 119.643 267.319 119.036 266.914 118.445C265.226 115.964 263.302 113.163 263.269 109.804C263.294 108.464 263.486 107.131 263.842 105.838C264.445 104.741 264.62 103.46 264.333 102.241C264.047 101.022 263.318 99.953 262.29 99.2397C261.222 98.3342 260.36 97.2125 259.758 95.9488C258.307 92.3541 260.534 89.3332 262.509 86.6667C263.935 85.1194 264.91 83.2106 265.327 81.148C265.462 78.5828 263.15 76.3045 260.906 74.1274L260.703 73.908C255.775 69.0982 255.758 65.4697 256.619 63.1576C257.06 61.9904 257.596 60.8615 258.222 59.7823C259.269 57.8584 259.556 57.3352 258.121 54.4156C257.617 53.4639 257.054 52.5451 256.433 51.6647C254.847 49.3864 253.058 46.7874 253.058 43.9184C253.143 39.3955 255.505 38.4335 256.906 38.2647C257.156 38.2325 257.41 38.2567 257.65 38.3355C257.889 38.4144 258.108 38.5459 258.29 38.7204C272.191 52.1065 283.117 68.2708 290.355 86.1604C293.106 93.9911 295.418 101.872 297.308 108.556C297.317 108.623 297.317 108.691 297.308 108.758L299.924 125.922C299.983 126.16 299.983 126.409 299.924 126.647C299.361 128.479 298.555 130.227 297.528 131.845C293.99 137.87 289.117 143.003 283.284 146.848C281.701 148.066 279.792 148.789 277.799 148.924ZM256.754 42.0451C256.47 42.6687 256.342 43.3523 256.383 44.0365C256.383 45.8254 257.733 47.8337 259.083 49.7914C259.829 50.8008 260.495 51.8673 261.075 52.9811C263.184 57.2508 262.458 58.9891 261.075 61.4193C260.536 62.3564 260.068 63.3324 259.674 64.339C258.779 66.7186 260.956 69.5539 263.049 71.5115L263.252 71.7141C265.766 74.1612 268.905 77.2327 268.669 81.3168C268.265 84.0565 267.061 86.616 265.209 88.675C263.302 91.2571 262.172 92.9279 262.863 94.683C263.292 95.4933 263.864 96.2194 264.551 96.8264C265.569 97.713 266.411 98.7837 267.032 99.9823C267.757 102.122 267.757 104.441 267.032 106.581C266.739 107.62 266.575 108.691 266.543 109.771C266.543 112.1 268.045 114.26 269.597 116.521C270.036 117.163 270.458 117.787 270.863 118.428C273.074 121.905 274.474 127.137 271.184 130.444C270.782 130.834 270.354 131.195 269.901 131.525C269.464 131.802 269.081 132.157 268.77 132.571C268.045 133.719 269.226 135.693 270.34 137.144L275.285 143.693C275.678 144.309 276.188 144.842 276.787 145.262C278.069 145.937 279.993 144.975 281.377 144.047C286.789 140.478 291.31 135.715 294.591 130.124C295.398 128.85 296.05 127.485 296.532 126.057L294.001 109.366C292.127 102.75 289.849 94.9699 287.166 87.4261C280.254 70.3704 269.901 54.9221 256.754 42.0451Z" fill="#093F68"/>
<path d="M90.8913 255.365C73.4739 244.745 58.6358 230.385 47.4511 213.325C47.9495 212.826 48.4734 212.353 49.0206 211.908C52.0161 209.394 55.6141 207.704 59.4608 207.003C63.3075 206.301 67.2705 206.613 70.9601 207.908C78.7571 210.946 83.7188 218.473 88.1573 225.561C89.98 228.48 91.8871 231.822 91.0601 235.163C90.3682 237.914 87.9211 240.007 87.3304 242.809C87.0754 245.138 87.5282 247.491 88.6299 249.559C89.44 251.466 90.3007 253.39 90.8913 255.365Z" fill="#70CC40"/>
<path d="M90.8914 257.052C90.5812 257.05 90.2775 256.963 90.0138 256.799C72.3973 246.032 57.3789 231.503 46.0335 214.253C45.819 213.928 45.7236 213.539 45.7636 213.151C45.8036 212.763 45.9765 212.402 46.2529 212.127C46.793 211.587 47.3668 211.081 47.9406 210.591C51.1654 207.882 55.0429 206.065 59.1878 205.318C63.3328 204.572 67.6008 204.924 71.5677 206.338C80.2085 209.714 85.6259 218.354 89.575 224.666C91.6846 228.042 93.6592 231.653 92.6972 235.568C92.2455 237.067 91.5499 238.481 90.6383 239.754C89.8949 240.779 89.3248 241.919 88.9506 243.129C88.804 245.108 89.2256 247.087 90.1657 248.833L90.6551 250.015C91.3133 251.567 91.9884 253.171 92.5284 254.791C92.6394 255.118 92.6472 255.472 92.5506 255.804C92.454 256.136 92.2577 256.43 91.9884 256.647C91.6827 256.909 91.2936 257.052 90.8914 257.052ZM49.7126 213.629C59.725 228.498 72.5712 241.247 87.5161 251.146L87.0942 250.184C85.9352 248.318 85.3841 246.139 85.5171 243.948C85.6501 241.756 86.4607 239.659 87.8367 237.948C88.5593 236.978 89.1285 235.902 89.5244 234.758C90.1657 232.126 88.5456 229.206 86.8241 226.455C82.0143 218.793 77.4745 212.228 70.437 209.477C67.0293 208.279 63.3673 207.992 59.8146 208.646C56.2619 209.301 52.9422 210.873 50.1852 213.207L49.7126 213.629Z" fill="#093F68"/>
<path d="M75.1455 215.536C74.7502 215.532 74.369 215.389 74.0683 215.132C73.7677 214.875 73.5667 214.521 73.5004 214.131C73.4341 213.742 73.5067 213.341 73.7056 212.999C73.9045 212.658 74.217 212.397 74.5886 212.262L219.828 161.632C220.246 161.506 220.697 161.546 221.086 161.745C221.475 161.943 221.772 162.285 221.914 162.698C222.056 163.112 222.032 163.564 221.848 163.96C221.664 164.356 221.333 164.665 220.925 164.822L75.6856 215.452C75.5123 215.513 75.3292 215.541 75.1455 215.536Z" fill="white"/>
<path d="M75.1455 215.536C74.9941 215.553 74.8413 215.553 74.6898 215.536C74.474 215.478 74.272 215.377 74.0955 215.24C73.9189 215.102 73.7714 214.931 73.6615 214.737C73.5516 214.542 73.4815 214.327 73.4552 214.105C73.4289 213.883 73.447 213.658 73.5085 213.443L113.303 71.174C113.345 70.9432 113.434 70.7237 113.566 70.5294C113.697 70.3351 113.867 70.1703 114.066 70.0455C114.264 69.9206 114.487 69.8385 114.719 69.8044C114.951 69.7703 115.187 69.7849 115.413 69.8473C115.639 69.9097 115.85 70.0185 116.031 70.1668C116.213 70.3151 116.362 70.4996 116.468 70.7086C116.575 70.9176 116.636 71.1465 116.649 71.3806C116.662 71.6147 116.626 71.849 116.544 72.0685L76.7657 214.304C76.6665 214.658 76.4546 214.969 76.1622 215.192C75.8698 215.414 75.5128 215.535 75.1455 215.536Z" fill="white"/>
<path d="M220.368 164.957C219.934 164.955 219.517 164.786 219.204 164.484C219.046 164.328 218.92 164.141 218.834 163.935C218.749 163.73 218.705 163.509 218.705 163.286C218.705 163.063 218.749 162.843 218.834 162.637C218.92 162.432 219.046 162.245 219.204 162.088L281.782 96.877C282.098 96.5626 282.526 96.3862 282.972 96.3862C283.418 96.3862 283.845 96.5626 284.162 96.877C284.32 97.0339 284.445 97.2205 284.531 97.4262C284.617 97.6318 284.661 97.8524 284.661 98.0752C284.661 98.298 284.617 98.5186 284.531 98.7242C284.445 98.9299 284.32 99.1165 284.162 99.2734L221.6 164.484C221.437 164.642 221.244 164.765 221.032 164.846C220.821 164.927 220.595 164.965 220.368 164.957Z" fill="white"/>
<path d="M180.337 215.536C179.959 215.532 179.593 215.408 179.291 215.182C179.116 215.044 178.971 214.872 178.862 214.678C178.754 214.483 178.686 214.269 178.66 214.048C178.635 213.827 178.654 213.603 178.716 213.389C178.778 213.175 178.881 212.976 179.021 212.802L219.086 162.172C219.223 161.998 219.393 161.853 219.587 161.745C219.78 161.637 219.993 161.568 220.214 161.542C220.434 161.516 220.657 161.534 220.87 161.594C221.083 161.655 221.283 161.757 221.457 161.894C221.631 162.031 221.776 162.202 221.884 162.395C221.992 162.589 222.061 162.802 222.087 163.022C222.113 163.242 222.095 163.465 222.035 163.678C221.974 163.892 221.873 164.091 221.735 164.265L181.67 214.895C181.511 215.096 181.309 215.258 181.078 215.369C180.847 215.48 180.593 215.537 180.337 215.536Z" fill="white"/>
<path d="M220.368 162.662C219.98 162.659 219.604 162.522 219.305 162.274L118.738 78.9372C118.424 78.6439 118.234 78.2421 118.206 77.8136C118.178 77.3851 118.315 76.9621 118.588 76.6308C118.862 76.2995 119.251 76.0848 119.677 76.0305C120.103 75.9761 120.533 76.0862 120.881 76.3382L217.82 156.671L204.319 86.5485L113.016 73.2329C112.636 73.1804 112.285 72.9995 112.021 72.7203C111.757 72.441 111.596 72.0801 111.565 71.6972C111.549 71.3227 111.658 70.9536 111.875 70.6481C112.092 70.3425 112.405 70.1178 112.763 70.0095L197.602 43.8171C197.828 43.745 198.066 43.7213 198.301 43.7475C198.537 43.7736 198.764 43.8491 198.969 43.969C199.173 44.0909 199.35 44.2546 199.486 44.4495C199.623 44.6444 199.717 44.866 199.762 45.0997L207.188 83.5951L280.364 94.2611C280.804 94.3278 281.2 94.5657 281.466 94.9229C281.731 95.28 281.845 95.7276 281.782 96.1682C281.719 96.6112 281.483 97.0113 281.126 97.2803C280.768 97.5493 280.318 97.6653 279.875 97.6027L207.846 87.0548L222.039 160.653C222.086 160.983 222.034 161.32 221.889 161.62C221.745 161.92 221.515 162.171 221.229 162.341C220.977 162.526 220.679 162.637 220.368 162.662ZM120.881 70.9715L203.576 83.0382L196.741 47.5974L120.881 70.9715Z" fill="white"/>
<path d="M220.368 172.231C225.318 172.231 229.33 168.219 229.33 163.269C229.33 158.32 225.318 154.308 220.368 154.308C215.419 154.308 211.407 158.32 211.407 163.269C211.407 168.219 215.419 172.231 220.368 172.231Z" fill="#F56132"/>
<path d="M220.368 173.902C218.261 173.902 216.202 173.277 214.45 172.106C212.699 170.935 211.334 169.271 210.528 167.324C209.723 165.377 209.513 163.235 209.925 161.169C210.337 159.103 211.353 157.205 212.844 155.716C214.335 154.228 216.234 153.215 218.301 152.806C220.368 152.397 222.51 152.61 224.455 153.419C226.401 154.227 228.063 155.595 229.231 157.348C230.399 159.102 231.021 161.162 231.017 163.269C231.013 166.091 229.889 168.795 227.892 170.788C225.896 172.782 223.19 173.902 220.368 173.902ZM220.368 155.996C218.93 155.996 217.523 156.422 216.327 157.221C215.131 158.021 214.199 159.157 213.648 160.486C213.098 161.815 212.954 163.277 213.234 164.688C213.515 166.099 214.208 167.395 215.225 168.413C216.242 169.43 217.538 170.123 218.949 170.403C220.36 170.684 221.823 170.54 223.152 169.989C224.481 169.439 225.617 168.507 226.416 167.31C227.215 166.114 227.642 164.708 227.642 163.269C227.642 161.34 226.876 159.49 225.512 158.126C224.147 156.762 222.297 155.996 220.368 155.996Z" fill="#093F68"/>
<path d="M75.1455 222.81C80.0948 222.81 84.107 218.798 84.107 213.848C84.107 208.899 80.0948 204.887 75.1455 204.887C70.1963 204.887 66.1841 208.899 66.1841 213.848C66.1841 218.798 70.1963 222.81 75.1455 222.81Z" fill="#F56132"/>
<path d="M75.1455 224.497C73.0386 224.501 70.9781 223.879 69.2246 222.711C67.4712 221.543 66.1036 219.881 65.295 217.935C64.4864 215.99 64.2731 213.848 64.6821 211.781C65.0911 209.714 66.104 207.815 67.5926 206.324C69.0813 204.833 70.9787 203.817 73.0449 203.405C75.1111 202.993 77.2531 203.203 79.2 204.008C81.1468 204.814 82.811 206.179 83.9819 207.93C85.1528 209.682 85.7778 211.741 85.7778 213.848C85.7733 216.668 84.6523 219.372 82.6598 221.368C80.6673 223.363 77.9656 224.489 75.1455 224.497ZM75.1455 206.591C73.7055 206.588 72.2969 207.012 71.0981 207.81C69.8994 208.608 68.9644 209.744 68.4118 211.074C67.8592 212.404 67.7137 213.868 67.9938 215.28C68.274 216.693 68.9671 217.99 69.9853 219.009C71.0036 220.027 72.3012 220.72 73.7138 221C75.1263 221.28 76.5902 221.135 77.92 220.582C79.2498 220.029 80.3857 219.095 81.1836 217.896C81.9816 216.697 82.4058 215.288 82.4025 213.848C82.398 211.925 81.632 210.082 80.272 208.722C78.9121 207.362 77.0688 206.596 75.1455 206.591Z" fill="#093F68"/>
<path d="M182.565 222.81C187.514 222.81 191.526 218.798 191.526 213.848C191.526 208.899 187.514 204.887 182.565 204.887C177.616 204.887 173.603 208.899 173.603 213.848C173.603 218.798 177.616 222.81 182.565 222.81Z" fill="#FFBC0E"/>
<path d="M182.565 224.497C180.458 224.501 178.397 223.879 176.644 222.711C174.89 221.543 173.523 219.881 172.714 217.935C171.906 215.99 171.692 213.848 172.101 211.781C172.51 209.714 173.523 207.815 175.012 206.324C176.501 204.833 178.398 203.817 180.464 203.405C182.53 202.993 184.672 203.203 186.619 204.008C188.566 204.814 190.23 206.179 191.401 207.93C192.572 209.682 193.197 211.741 193.197 213.848C193.193 216.668 192.071 219.372 190.079 221.368C188.087 223.363 185.385 224.489 182.565 224.497ZM182.565 206.591C181.125 206.588 179.716 207.012 178.517 207.81C177.319 208.608 176.384 209.744 175.831 211.074C175.278 212.404 175.133 213.868 175.413 215.28C175.693 216.693 176.386 217.99 177.405 219.009C178.423 220.027 179.72 220.72 181.133 221C182.546 221.28 184.009 221.135 185.339 220.582C186.669 220.029 187.805 219.095 188.603 217.896C189.401 216.697 189.825 215.288 189.822 213.848C189.817 211.925 189.051 210.082 187.691 208.722C186.331 207.362 184.488 206.596 182.565 206.591Z" fill="#093F68"/>
<path d="M114.924 80.5236C119.873 80.5236 123.885 76.5114 123.885 71.5622C123.885 66.6129 119.873 62.6007 114.924 62.6007C109.974 62.6007 105.962 66.6129 105.962 71.5622C105.962 76.5114 109.974 80.5236 114.924 80.5236Z" fill="#FFBC0E"/>
<path d="M114.924 82.2113C112.817 82.2113 110.758 81.5867 109.007 80.4166C107.256 79.2464 105.891 77.5833 105.085 75.6374C104.279 73.6915 104.068 71.5504 104.479 69.4846C104.89 67.4189 105.904 65.5214 107.393 64.0321C108.883 62.5428 110.78 61.5286 112.846 61.1177C114.912 60.7068 117.053 60.9177 118.999 61.7237C120.945 62.5297 122.608 63.8946 123.778 65.6458C124.948 67.3971 125.573 69.456 125.573 71.5622C125.568 74.3851 124.445 77.0912 122.449 79.0873C120.453 81.0834 117.746 82.2068 114.924 82.2113ZM114.924 64.3052C113.484 64.3052 112.077 64.7323 110.881 65.5323C109.684 66.3323 108.752 67.4693 108.202 68.7994C107.652 70.1295 107.509 71.5929 107.791 73.0043C108.073 74.4157 108.767 75.7118 109.786 76.7284C110.805 77.7449 112.103 78.4364 113.515 78.7151C114.927 78.9939 116.39 78.8474 117.719 78.2943C119.048 77.7412 120.182 76.8062 120.98 75.6079C121.777 74.4095 122.201 73.0015 122.197 71.5622C122.193 69.636 121.425 67.7902 120.061 66.4297C118.697 65.0693 116.85 64.3052 114.924 64.3052Z" fill="#093F68"/>
<path d="M200.471 52.4748C205.42 52.4748 209.432 48.4626 209.432 43.5133C209.432 38.5641 205.42 34.5519 200.471 34.5519C195.522 34.5519 191.509 38.5641 191.509 43.5133C191.509 48.4626 195.522 52.4748 200.471 52.4748Z" fill="#F56132"/>
<path d="M200.471 54.1624C198.365 54.1624 196.306 53.5379 194.554 52.3677C192.803 51.1976 191.438 49.5344 190.632 47.5886C189.826 45.6427 189.615 43.5015 190.026 41.4358C190.437 39.3701 191.451 37.4726 192.941 35.9833C194.43 34.494 196.328 33.4797 198.393 33.0688C200.459 32.6579 202.6 32.8688 204.546 33.6748C206.492 34.4808 208.155 35.8458 209.325 37.597C210.495 39.3482 211.12 41.4071 211.12 43.5133C211.115 46.3363 209.992 49.0423 207.996 51.0385C206 53.0346 203.294 54.158 200.471 54.1624ZM200.471 36.2564C199.031 36.2564 197.625 36.6834 196.428 37.4834C195.231 38.2835 194.299 39.4205 193.749 40.7506C193.199 42.0806 193.056 43.544 193.338 44.9555C193.62 46.3669 194.315 47.6629 195.333 48.6795C196.352 49.6961 197.65 50.3875 199.062 50.6663C200.474 50.945 201.937 50.7986 203.266 50.2455C204.595 49.6923 205.73 48.7574 206.527 47.559C207.324 46.3606 207.748 44.9527 207.745 43.5133C207.74 41.5871 206.972 39.7413 205.608 38.3809C204.245 37.0204 202.397 36.2564 200.471 36.2564Z" fill="#093F68"/>
<path d="M282.947 107.003C287.896 107.003 291.908 102.991 291.908 98.0415C291.908 93.0922 287.896 89.08 282.947 89.08C277.997 89.08 273.985 93.0922 273.985 98.0415C273.985 102.991 277.997 107.003 282.947 107.003Z" fill="#FFBC0E"/>
<path d="M282.946 108.691C280.84 108.691 278.781 108.066 277.03 106.896C275.279 105.726 273.914 104.063 273.108 102.117C272.302 100.171 272.091 98.0296 272.502 95.9639C272.913 93.8982 273.927 92.0007 275.416 90.5114C276.906 89.0221 278.803 88.0079 280.869 87.597C282.935 87.1861 285.076 87.397 287.022 88.203C288.968 89.009 290.631 90.3739 291.801 92.1251C292.971 93.8764 293.596 95.9353 293.596 98.0415C293.591 100.864 292.468 103.57 290.472 105.567C288.475 107.563 285.769 108.686 282.946 108.691ZM282.946 90.7845C281.507 90.7845 280.1 91.2116 278.904 92.0116C277.707 92.8116 276.775 93.9486 276.225 95.2787C275.675 96.6088 275.532 98.0722 275.814 99.4836C276.096 100.895 276.79 102.191 277.809 103.208C278.828 104.224 280.126 104.916 281.538 105.194C282.95 105.473 284.413 105.327 285.742 104.774C287.071 104.22 288.205 103.286 289.003 102.087C289.8 100.889 290.224 99.4808 290.22 98.0415C290.216 96.1153 289.448 94.2695 288.084 92.909C286.72 91.5486 284.873 90.7845 282.946 90.7845Z" fill="#093F68"/>
<path d="M291.132 240.918C286.033 240.713 280.979 239.891 276.078 238.471C252.332 232.362 185.383 196.871 123.666 157.7C88.5624 135.406 6.86299 81.013 6.60984 57.369C6.46889 55.6834 6.7829 53.9909 7.51909 52.468C8.25528 50.9452 9.38668 49.6478 10.7952 48.7113C21.6975 41.6738 51.299 55.2425 52.4972 55.8163C52.6989 55.9094 52.8802 56.0413 53.0309 56.2045C53.1817 56.3676 53.2987 56.5589 53.3755 56.7673C53.4523 56.9758 53.4873 57.1973 53.4785 57.4192C53.4697 57.6412 53.4172 57.8592 53.3242 58.0609C53.2311 58.2626 53.0992 58.4439 52.936 58.5947C52.7728 58.7454 52.5816 58.8625 52.3731 58.9392C52.1647 59.016 51.9432 59.051 51.7212 59.0422C51.4993 59.0334 51.2812 58.9809 51.0796 58.8878C43.0126 55.1412 20.3811 46.5511 12.6179 51.6141C11.7008 52.2546 10.9726 53.1298 10.5094 54.1481C10.0463 55.1664 9.86522 56.2905 9.98515 57.4027C10.1539 72.5916 53.3242 109.112 125.471 154.915C186.953 193.934 253.463 229.172 276.922 235.282C293.224 239.484 296.026 236.969 296.498 236.007C298.625 231.957 286.524 218.759 277.681 211.114C277.514 210.968 277.377 210.79 277.278 210.591C277.18 210.392 277.121 210.175 277.106 209.954C277.091 209.732 277.12 209.509 277.191 209.299C277.263 209.088 277.374 208.894 277.521 208.726C277.667 208.559 277.845 208.422 278.044 208.324C278.243 208.225 278.46 208.166 278.682 208.152C278.903 208.137 279.126 208.166 279.336 208.237C279.547 208.308 279.741 208.42 279.909 208.566C283.909 211.941 303.654 229.662 299.502 237.577C298.287 239.788 295.57 240.918 291.132 240.918Z" fill="#093F68"/>
<path d="M10.4577 198.17C9.41824 198.24 8.37816 198.043 7.43681 197.596C2.37385 194.542 -0.191392 190.846 0.0111271 186.61C0.618683 174.188 25.6635 162.24 26.7267 161.734C26.9281 161.637 27.1468 161.581 27.3699 161.569C27.5931 161.558 27.8164 161.591 28.0268 161.666C28.2371 161.741 28.4305 161.858 28.5955 162.008C28.7605 162.159 28.894 162.341 28.9882 162.544C29.1783 162.949 29.1998 163.413 29.0479 163.834C28.896 164.255 28.5831 164.598 28.1781 164.788C21.4275 167.978 3.80835 178.138 3.38644 186.728C3.25143 189.647 5.07409 192.246 9.15822 194.643C10.3058 195.318 19.8748 196.989 95.8699 162.797C191.037 119.998 301.46 61.0312 303.148 52.1035C303.4 51.3568 303.43 50.5532 303.235 49.7896C303.041 49.026 302.629 48.335 302.051 47.8C296.296 42.6357 274.053 47.935 265.969 50.4158C265.546 50.5323 265.094 50.4796 264.71 50.2688C264.325 50.0581 264.038 49.7059 263.908 49.2869C263.779 48.8678 263.817 48.4148 264.016 48.0239C264.215 47.6329 264.558 47.3347 264.973 47.1924C268.129 46.2136 296.11 37.9272 304.295 45.2854C305.303 46.2127 306.036 47.3983 306.417 48.7134C306.798 50.0285 306.811 51.4227 306.456 52.7448C304.093 65.2503 178.97 129.128 97.1863 165.818C49.6282 187.369 20.4993 198.17 10.4577 198.17Z" fill="#093F68"/>
</svg>
